# xmcd CD database file
#
# Track frame offsets:
#	150
#	12747
#	28040
#	45455
#	63645
#	83362
#	102150
#	120307
#	135147
#	148465
#	166395
#	180153
#	193998
#	220163
#	236003
#	255463
#
# Disc length: 3593 seconds
#
# Revision: 2
# Processed by: cddbd v1.4b41PL1 Copyright (c) Steve Scherf et al.
# Submitted via: Feurio! 1.50.2ß - http://www.feurio.com
#
DISCID=d60e0710
DTITLE=Abba - Greatest Hits CD1
DYEAR=1900
DGENRE=
TTITLE0=Waterloo
TTITLE1=SOS
TTITLE2=Dancing queen
TTITLE3=Knowin me, knowin you
TTITLE4=Lay all your love on me
TTITLE5=Super trouper
TTITLE6=Take a chance on me
TTITLE7=I do, I do, I do
TTITLE8=Honey, honey
TTITLE9=Name of the game
TTITLE10=Arrival
TTITLE11=Ring ring
TTITLE12=Eagle
TTITLE13=Summer night city
TTITLE14=Angel eyes
TTITLE15=Money, money, money
EXTD=
EXTT0=
EXTT1=
EXTT2=
EXTT3=
EXTT4=
EXTT5=
EXTT6=
EXTT7=
EXTT8=
EXTT9=
EXTT10=
EXTT11=
EXTT12=
EXTT13=
EXTT14=
EXTT15=
PLAYORDER=
